<svg width="150" height="100" viewBox="0 0 150 100" fill="none" xmlns="http://www.w3.org/2000/svg">
<rect width="150" height="100" fill="#BCBCBC"/>
<path d="M41.128 55V45.4H39.576V43.336H43.432V55H41.128ZM46.2529 43.304H53.4849V45.272H48.3009V48.008C48.7329 47.48 49.6129 47.064 50.5889 47.064C53.3089 47.064 54.2369 49.112 54.2369 50.92C54.2369 53.304 52.8609 55 50.2049 55C47.6929 55 46.2529 53.608 46.0609 51.704H48.2369C48.4289 52.52 49.0849 53.112 50.1729 53.112C51.4849 53.112 52.0769 52.184 52.0769 50.952C52.0769 49.64 51.4209 48.92 50.1569 48.92C49.2289 48.92 48.6369 49.432 48.3969 50.152H46.2529V43.304ZM55.9418 49.016C55.9418 45.64 56.9658 43.112 60.2618 43.112C63.5578 43.112 64.5818 45.64 64.5818 49.016C64.5818 52.424 63.5578 54.968 60.2618 54.968C56.9658 54.968 55.9418 52.424 55.9418 49.016ZM62.3738 49.016C62.3738 47.016 62.1498 45.192 60.2618 45.192C58.3738 45.192 58.1498 47.016 58.1498 49.016C58.1498 51.096 58.3738 52.888 60.2618 52.888C62.1498 52.888 62.3738 51.096 62.3738 49.016ZM77.042 55L74.626 51.24L72.434 55H69.906L73.426 49.368L69.858 43.832H72.434L74.85 47.576L77.026 43.832H79.554L76.05 49.448L79.618 55H77.042ZM86.1593 55V45.4H84.6073V43.336H88.4633V55H86.1593ZM90.6761 49.016C90.6761 45.64 91.7001 43.112 94.9961 43.112C98.2921 43.112 99.3161 45.64 99.3161 49.016C99.3161 52.424 98.2921 54.968 94.9961 54.968C91.7001 54.968 90.6761 52.424 90.6761 49.016ZM97.1081 49.016C97.1081 47.016 96.8841 45.192 94.9961 45.192C93.1081 45.192 92.8841 47.016 92.8841 49.016C92.8841 51.096 93.1081 52.888 94.9961 52.888C96.8841 52.888 97.1081 51.096 97.1081 49.016ZM101.02 49.016C101.02 45.64 102.044 43.112 105.34 43.112C108.636 43.112 109.66 45.64 109.66 49.016C109.66 52.424 108.636 54.968 105.34 54.968C102.044 54.968 101.02 52.424 101.02 49.016ZM107.452 49.016C107.452 47.016 107.228 45.192 105.34 45.192C103.452 45.192 103.228 47.016 103.228 49.016C103.228 51.096 103.452 52.888 105.34 52.888C107.228 52.888 107.452 51.096 107.452 49.016Z" fill="#555555"/>
</svg>
