<svg width="190" height="70" viewBox="0 0 190 70" fill="none" xmlns="http://www.w3.org/2000/svg">
<rect width="190" height="70" rx="35" fill="#BCBCBC"/>
<path d="M55.72 34V31.42H60.54V46H57.66V34H55.72ZM66.5461 41.9C66.6528 42.4867 66.8928 42.94 67.2661 43.26C67.6528 43.5667 68.1661 43.72 68.8061 43.72C69.6328 43.72 70.2328 43.38 70.6061 42.7C70.9794 42.0067 71.1661 40.8467 71.1661 39.22C70.8594 39.6467 70.4261 39.98 69.8661 40.22C69.3194 40.46 68.7261 40.58 68.0861 40.58C67.2328 40.58 66.4594 40.4067 65.7661 40.06C65.0861 39.7 64.5461 39.1733 64.1461 38.48C63.7461 37.7733 63.5461 36.92 63.5461 35.92C63.5461 34.44 63.9861 33.2667 64.8661 32.4C65.7461 31.52 66.9461 31.08 68.4661 31.08C70.3594 31.08 71.6928 31.6867 72.4661 32.9C73.2528 34.1133 73.6461 35.94 73.6461 38.38C73.6461 40.1133 73.4928 41.5333 73.1861 42.64C72.8928 43.7467 72.3794 44.5867 71.6461 45.16C70.9261 45.7333 69.9394 46.02 68.6861 46.02C67.6994 46.02 66.8594 45.8333 66.1661 45.46C65.4728 45.0733 64.9394 44.5733 64.5661 43.96C64.2061 43.3333 63.9994 42.6467 63.9461 41.9H66.5461ZM68.6661 38.3C69.3594 38.3 69.9061 38.0867 70.3061 37.66C70.7061 37.2333 70.9061 36.66 70.9061 35.94C70.9061 35.1533 70.6928 34.5467 70.2661 34.12C69.8528 33.68 69.2861 33.46 68.5661 33.46C67.8461 33.46 67.2728 33.6867 66.8461 34.14C66.4328 34.58 66.2261 35.1667 66.2261 35.9C66.2261 36.6067 66.4261 37.1867 66.8261 37.64C67.2394 38.08 67.8528 38.3 68.6661 38.3ZM75.8256 38.52C75.8256 36.2133 76.239 34.4067 77.0656 33.1C77.9056 31.7933 79.2923 31.14 81.2256 31.14C83.159 31.14 84.539 31.7933 85.3656 33.1C86.2056 34.4067 86.6256 36.2133 86.6256 38.52C86.6256 40.84 86.2056 42.66 85.3656 43.98C84.539 45.3 83.159 45.96 81.2256 45.96C79.2923 45.96 77.9056 45.3 77.0656 43.98C76.239 42.66 75.8256 40.84 75.8256 38.52ZM83.8656 38.52C83.8656 37.5333 83.799 36.7067 83.6656 36.04C83.5456 35.36 83.2923 34.8067 82.9056 34.38C82.5323 33.9533 81.9723 33.74 81.2256 33.74C80.479 33.74 79.9123 33.9533 79.5256 34.38C79.1523 34.8067 78.899 35.36 78.7656 36.04C78.6456 36.7067 78.5856 37.5333 78.5856 38.52C78.5856 39.5333 78.6456 40.3867 78.7656 41.08C78.8856 41.76 79.139 42.3133 79.5256 42.74C79.9123 43.1533 80.479 43.36 81.2256 43.36C81.9723 43.36 82.539 43.1533 82.9256 42.74C83.3123 42.3133 83.5656 41.76 83.6856 41.08C83.8056 40.3867 83.8656 39.5333 83.8656 38.52ZM102.201 46L99.1809 41.3L96.4409 46H93.2809L97.6809 38.96L93.2209 32.04H96.4409L99.4609 36.72L102.181 32.04H105.341L100.961 39.06L105.421 46H102.201ZM121.278 33.54L115.958 46H113.118L118.478 33.86H111.638V31.46H121.278V33.54ZM122.955 38.52C122.955 36.2133 123.368 34.4067 124.195 33.1C125.035 31.7933 126.421 31.14 128.355 31.14C130.288 31.14 131.668 31.7933 132.495 33.1C133.335 34.4067 133.755 36.2133 133.755 38.52C133.755 40.84 133.335 42.66 132.495 43.98C131.668 45.3 130.288 45.96 128.355 45.96C126.421 45.96 125.035 45.3 124.195 43.98C123.368 42.66 122.955 40.84 122.955 38.52ZM130.995 38.52C130.995 37.5333 130.928 36.7067 130.795 36.04C130.675 35.36 130.421 34.8067 130.035 34.38C129.661 33.9533 129.101 33.74 128.355 33.74C127.608 33.74 127.041 33.9533 126.655 34.38C126.281 34.8067 126.028 35.36 125.895 36.04C125.775 36.7067 125.715 37.5333 125.715 38.52C125.715 39.5333 125.775 40.3867 125.895 41.08C126.015 41.76 126.268 42.3133 126.655 42.74C127.041 43.1533 127.608 43.36 128.355 43.36C129.101 43.36 129.668 43.1533 130.055 42.74C130.441 42.3133 130.695 41.76 130.815 41.08C130.935 40.3867 130.995 39.5333 130.995 38.52Z" fill="#555555"/>
</svg>
