<?xml version="1.0" standalone="no"?>
<!DOCTYPE svg PUBLIC "-//W3C//DTD SVG 20010904//EN"
 "http://www.w3.org/TR/2001/REC-SVG-20010904/DTD/svg10.dtd">
<svg version="1.0" xmlns="http://www.w3.org/2000/svg"
 width="512.000000pt" height="512.000000pt" viewBox="0 0 512.000000 512.000000"
 preserveAspectRatio="xMidYMid meet">

<g transform="translate(0.000000,512.000000) scale(0.100000,-0.100000)"
fill="#000000" stroke="none">
<path d="M1325 4686 c-149 -25 -253 -60 -377 -129 -387 -213 -614 -646 -568
-1083 26 -242 114 -439 279 -631 l58 -68 -76 -52 c-191 -130 -374 -343 -481
-558 -67 -135 -99 -225 -131 -370 -20 -92 -22 -134 -26 -507 l-5 -408 536 0
536 0 0 -230 0 -230 1490 0 1490 0 0 230 0 230 536 0 536 0 -5 408 c-4 373 -6
415 -26 507 -32 145 -64 235 -131 370 -107 215 -280 417 -476 554 l-81 57 48
54 c219 246 322 555 289 866 -53 491 -403 877 -890 980 -100 22 -309 24 -410
5 -260 -49 -512 -197 -670 -396 l-48 -60 -81 5 c-44 3 -118 3 -162 0 l-81 -5
-48 60 c-157 197 -413 349 -665 395 -99 18 -273 21 -360 6z m333 -282 c148
-30 284 -101 397 -206 l59 -55 -64 -33 c-99 -50 -220 -141 -300 -227 -151
-161 -244 -347 -286 -573 -29 -155 -10 -410 42 -544 5 -14 -3 -16 -57 -16
-331 1 -650 246 -761 583 -32 98 -33 107 -32 257 0 142 3 162 28 240 33 100
55 144 109 225 123 181 304 303 519 350 87 19 253 18 346 -1z m2146 1 c218
-46 399 -167 523 -350 54 -81 76 -125 109 -225 25 -78 28 -98 28 -240 1 -150
0 -159 -32 -257 -111 -337 -430 -582 -761 -583 -54 0 -62 2 -57 16 52 134 71
389 42 544 -42 226 -135 412 -286 573 -80 86 -201 177 -300 227 l-64 33 59 55
c111 103 247 175 390 205 91 20 261 21 349 2z m-1079 -464 c284 -58 509 -249
620 -526 34 -86 50 -179 49 -300 0 -147 -18 -224 -84 -360 -83 -172 -206 -297
-375 -381 -133 -66 -224 -87 -375 -87 -151 0 -242 21 -375 87 -169 84 -292
209 -375 381 -66 136 -84 213 -84 360 -1 144 18 233 74 353 169 359 545 552
925 473z m-1653 -1386 c139 -57 249 -77 426 -79 l152 -1 70 -82 69 -81 -93
-67 c-181 -128 -365 -344 -468 -548 -57 -114 -114 -294 -135 -424 l-17 -113
-398 0 -398 0 0 241 c0 203 3 257 20 340 71 347 277 632 590 815 41 24 79 42
85 40 5 -3 49 -21 97 -41z m3158 1 c313 -183 519 -468 590 -815 17 -83 20
-137 20 -340 l0 -241 -398 0 -398 0 -17 113 c-21 130 -78 310 -135 424 -103
204 -287 420 -468 548 l-93 66 72 85 72 85 80 -6 c158 -13 366 23 514 89 42
19 78 34 81 35 3 1 39 -19 80 -43z m-2108 -456 c36 -17 109 -42 164 -57 89
-24 116 -27 274 -27 158 0 185 3 274 27 54 14 129 41 166 58 44 20 77 29 92
26 13 -4 64 -33 113 -65 277 -180 451 -421 532 -737 23 -91 26 -123 30 -362
l5 -263 -1212 0 -1212 0 5 263 c4 239 7 271 30 362 82 321 263 568 549 748 50
31 99 57 108 57 10 0 47 -14 82 -30z"/>
</g>
</svg>
