<svg width="188" height="48" viewBox="0 0 188 48" fill="none" xmlns="http://www.w3.org/2000/svg">
<rect width="188" height="48" fill="#BCBCBC"/>
<path d="M59.128 31V21.4H57.576V19.336H61.432V31H59.128ZM65.5969 24.824C64.6369 24.328 63.9969 23.512 63.9969 22.248C63.9969 20.568 65.2769 19.112 67.9329 19.112C70.5889 19.112 71.8689 20.584 71.8689 22.248C71.8689 23.48 71.1969 24.36 70.2849 24.824C71.4369 25.32 72.1569 26.328 72.1569 27.688C72.1569 29.912 70.3329 31.256 67.9329 31.256C65.5489 31.256 63.7249 29.912 63.7249 27.688C63.7249 26.312 64.4449 25.304 65.5969 24.824ZM67.9329 24.168C68.9569 24.168 69.6929 23.528 69.6929 22.568C69.6929 21.512 69.0049 20.92 67.9329 20.92C66.8929 20.92 66.1889 21.496 66.1889 22.584C66.1889 23.544 66.9249 24.168 67.9329 24.168ZM67.9329 25.8C66.7649 25.8 65.8849 26.408 65.8849 27.592C65.8849 28.632 66.6529 29.4 67.9329 29.4C69.2129 29.4 69.9649 28.616 69.9649 27.592C69.9649 26.44 69.1329 25.8 67.9329 25.8ZM75.8781 24.824C74.9181 24.328 74.2781 23.512 74.2781 22.248C74.2781 20.568 75.5581 19.112 78.2141 19.112C80.8701 19.112 82.1501 20.584 82.1501 22.248C82.1501 23.48 81.4781 24.36 80.5661 24.824C81.7181 25.32 82.4381 26.328 82.4381 27.688C82.4381 29.912 80.6141 31.256 78.2141 31.256C75.8301 31.256 74.0061 29.912 74.0061 27.688C74.0061 26.312 74.7261 25.304 75.8781 24.824ZM78.2141 24.168C79.2381 24.168 79.9741 23.528 79.9741 22.568C79.9741 21.512 79.2861 20.92 78.2141 20.92C77.1741 20.92 76.4701 21.496 76.4701 22.584C76.4701 23.544 77.2061 24.168 78.2141 24.168ZM78.2141 25.8C77.0461 25.8 76.1661 26.408 76.1661 27.592C76.1661 28.632 76.9341 29.4 78.2141 29.4C79.4941 29.4 80.2461 28.616 80.2461 27.592C80.2461 26.44 79.4141 25.8 78.2141 25.8ZM94.9639 31L92.5479 27.24L90.3559 31H87.8279L91.3479 25.368L87.7799 19.832H90.3559L92.7719 23.576L94.9479 19.832H97.4759L93.9719 25.448L97.5399 31H94.9639ZM108.305 31V28.728H102.705V26.968L107.937 19.48H110.545V26.776H111.953V28.728H110.545V31H108.305ZM105.169 26.776H108.449V21.88L105.169 26.776ZM115.331 24.824C114.371 24.328 113.731 23.512 113.731 22.248C113.731 20.568 115.011 19.112 117.667 19.112C120.323 19.112 121.603 20.584 121.603 22.248C121.603 23.48 120.931 24.36 120.019 24.824C121.171 25.32 121.891 26.328 121.891 27.688C121.891 29.912 120.067 31.256 117.667 31.256C115.283 31.256 113.459 29.912 113.459 27.688C113.459 26.312 114.179 25.304 115.331 24.824ZM117.667 24.168C118.691 24.168 119.427 23.528 119.427 22.568C119.427 21.512 118.739 20.92 117.667 20.92C116.627 20.92 115.923 21.496 115.923 22.584C115.923 23.544 116.659 24.168 117.667 24.168ZM117.667 25.8C116.499 25.8 115.619 26.408 115.619 27.592C115.619 28.632 116.387 29.4 117.667 29.4C118.947 29.4 119.699 28.616 119.699 27.592C119.699 26.44 118.867 25.8 117.667 25.8Z" fill="#555555"/>
</svg>
