<svg width="34" height="34" viewBox="0 0 34 34" fill="none" xmlns="http://www.w3.org/2000/svg">
<rect width="34" height="34" rx="17" fill="#BCBCBC"/>
<path d="M6.33 16.778C6.372 15.968 6.948 15.524 7.788 15.524C8.688 15.524 9.168 16.034 9.168 16.682C9.168 17.228 8.826 17.564 8.508 17.672V17.696C8.952 17.834 9.246 18.194 9.246 18.788C9.246 19.502 8.742 20.03 7.824 20.03C6.96 20.03 6.306 19.598 6.27 18.68H7.086C7.104 19.058 7.356 19.328 7.806 19.328C8.226 19.328 8.442 19.064 8.442 18.716C8.442 18.224 8.13 18.044 7.506 18.044H7.332V17.354H7.506C7.998 17.354 8.358 17.216 8.358 16.784C8.358 16.442 8.148 16.238 7.764 16.238C7.356 16.238 7.182 16.502 7.152 16.778H6.33ZM11.9738 20V19.148H9.8738V18.488L11.8358 15.68H12.8138V18.416H13.3418V19.148H12.8138V20H11.9738ZM10.7978 18.416H12.0278V16.58L10.7978 18.416ZM17.9103 20L17.0043 18.59L16.1823 20H15.2343L16.5543 17.888L15.2163 15.812H16.1823L17.0883 17.216L17.9043 15.812H18.8523L17.5383 17.918L18.8763 20H17.9103ZM20.8613 16.778C20.9033 15.968 21.4793 15.524 22.3193 15.524C23.2193 15.524 23.6992 16.034 23.6992 16.682C23.6992 17.228 23.3573 17.564 23.0393 17.672V17.696C23.4833 17.834 23.7773 18.194 23.7773 18.788C23.7773 19.502 23.2733 20.03 22.3553 20.03C21.4913 20.03 20.8373 19.598 20.8013 18.68H21.6173C21.6353 19.058 21.8873 19.328 22.3373 19.328C22.7573 19.328 22.9733 19.064 22.9733 18.716C22.9733 18.224 22.6613 18.044 22.0373 18.044H21.8633V17.354H22.0373C22.5293 17.354 22.8893 17.216 22.8893 16.784C22.8893 16.442 22.6793 16.238 22.2952 16.238C21.8873 16.238 21.7133 16.502 21.6833 16.778H20.8613ZM26.505 20V19.148H24.405V18.488L26.367 15.68H27.345V18.416H27.873V19.148H27.345V20H26.505ZM25.329 18.416H26.559V16.58L25.329 18.416Z" fill="#555555"/>
</svg>
