<svg width="34" height="34" viewBox="0 0 34 34" fill="none" xmlns="http://www.w3.org/2000/svg">
<circle cx="16.8262" cy="16.8144" r="16.8144" fill="#E3E3E3"/>
<path d="M24.61 16.9681C24.61 17.2158 24.5115 17.4534 24.3363 17.6286C24.1612 17.8038 23.9236 17.9022 23.6758 17.9022H17.7596V23.8184C17.7596 24.0661 17.6612 24.3037 17.486 24.4789C17.3108 24.6541 17.0732 24.7525 16.8255 24.7525C16.5777 24.7525 16.3401 24.6541 16.1649 24.4789C15.9898 24.3037 15.8913 24.0661 15.8913 23.8184V17.9022H9.97515C9.7274 17.9022 9.4898 17.8038 9.31462 17.6286C9.13943 17.4534 9.04102 17.2158 9.04102 16.9681C9.04102 16.7203 9.13943 16.4827 9.31462 16.3075C9.4898 16.1323 9.7274 16.0339 9.97515 16.0339H15.8913V10.1177C15.8913 9.86998 15.9898 9.63238 16.1649 9.4572C16.3401 9.28201 16.5777 9.18359 16.8255 9.18359C17.0732 9.18359 17.3108 9.28201 17.486 9.4572C17.6612 9.63238 17.7596 9.86998 17.7596 10.1177V16.0339H23.6758C23.9236 16.0339 24.1612 16.1323 24.3363 16.3075C24.5115 16.4827 24.61 16.7203 24.61 16.9681Z" fill="#82828A"/>
</svg>
