<?xml version="1.0" encoding="UTF-8"?>
<svg id="Layer_1" data-name="Layer 1" xmlns="http://www.w3.org/2000/svg" xmlns:xlink="http://www.w3.org/1999/xlink" viewBox="0 0 1016.74 216.76">
  <defs>
    <style>
      .cls-1 {
        fill: #374ad1;
      }

      .cls-1, .cls-2, .cls-3, .cls-4, .cls-5, .cls-6, .cls-7, .cls-8, .cls-9, .cls-10, .cls-11, .cls-12, .cls-13, .cls-14, .cls-15, .cls-16, .cls-17, .cls-18, .cls-19, .cls-20, .cls-21, .cls-22, .cls-23, .cls-24, .cls-25, .cls-26, .cls-27 {
        stroke-width: 0px;
      }

      .cls-2 {
        fill: url(#linear-gradient);
      }

      .cls-3 {
        fill: #0551d8;
      }

      .cls-4 {
        fill: url(#linear-gradient-6);
      }

      .cls-5 {
        fill: url(#radial-gradient-8);
      }

      .cls-6 {
        fill: #0756d6;
      }

      .cls-7 {
        fill: url(#radial-gradient-4);
        opacity: .5;
      }

      .cls-8 {
        fill: url(#linear-gradient-5);
      }

      .cls-9 {
        fill: #056ad8;
      }

      .cls-10 {
        fill: url(#linear-gradient-2);
      }

      .cls-11 {
        fill: url(#linear-gradient-7);
      }

      .cls-12 {
        fill: url(#radial-gradient-2);
      }

      .cls-13 {
        fill: url(#radial-gradient-7);
      }

      .cls-14 {
        fill: url(#linear-gradient-3);
      }

      .cls-15 {
        fill: url(#radial-gradient-5);
      }

      .cls-16 {
        fill: url(#linear-gradient-9);
      }

      .cls-17 {
        fill: url(#radial-gradient);
      }

      .cls-18 {
        fill: #0476d9;
      }

      .cls-19 {
        fill: #3747b7;
      }

      .cls-20 {
        fill: #333;
      }

      .cls-21 {
        fill: url(#linear-gradient-8);
      }

      .cls-22 {
        fill: url(#radial-gradient-10);
      }

      .cls-23 {
        fill: url(#radial-gradient-6);
      }

      .cls-24 {
        fill: url(#radial-gradient-9);
      }

      .cls-25 {
        fill: url(#radial-gradient-3);
      }

      .cls-26 {
        fill: url(#radial-gradient-11);
      }

      .cls-27 {
        fill: url(#linear-gradient-4);
      }
    </style>
    <linearGradient id="linear-gradient" x1="681.3" y1="225.15" x2="932.43" y2="71.68" gradientUnits="userSpaceOnUse">
      <stop offset="0" stop-color="#2849e6"/>
      <stop offset=".5" stop-color="#3b6ce2"/>
      <stop offset="1" stop-color="#3c6ee2"/>
    </linearGradient>
    <linearGradient id="linear-gradient-2" x1="-4823.4" y1="-566.21" x2="-4765.09" y2="-553.2" gradientTransform="translate(-4669.41 -590.93) rotate(-165.57) scale(1 -1)" gradientUnits="userSpaceOnUse">
      <stop offset="0" stop-color="#1d3159"/>
      <stop offset=".34" stop-color="#066ebc"/>
      <stop offset=".65" stop-color="#066ebc"/>
      <stop offset="1" stop-color="#066ebc"/>
    </linearGradient>
    <linearGradient id="linear-gradient-3" x1="-4797.99" y1="-537.19" x2="-4770.16" y2="-582.23" gradientTransform="translate(-4669.41 -590.93) rotate(-165.57) scale(1 -1)" gradientUnits="userSpaceOnUse">
      <stop offset="0" stop-color="#045cd9" stop-opacity=".8"/>
      <stop offset=".34" stop-color="#0476d9" stop-opacity=".3"/>
      <stop offset=".65" stop-color="#0476d9" stop-opacity=".3"/>
      <stop offset="1" stop-color="#049fd9" stop-opacity=".3"/>
    </linearGradient>
    <linearGradient id="linear-gradient-4" x1="-4850.32" y1="-491.42" x2="-4832.13" y2="-446.7" gradientTransform="translate(-4669.41 -590.93) rotate(-165.57) scale(1 -1)" gradientUnits="userSpaceOnUse">
      <stop offset="0" stop-color="#0756d6" stop-opacity=".7"/>
      <stop offset=".34" stop-color="#056ad8" stop-opacity=".1"/>
      <stop offset=".52" stop-color="#5867d6" stop-opacity=".1"/>
      <stop offset=".65" stop-color="#3a7cd0" stop-opacity=".1"/>
      <stop offset="1" stop-color="#0756d6" stop-opacity=".6"/>
    </linearGradient>
    <radialGradient id="radial-gradient" cx="-4811.04" cy="-455.87" fx="-4811.04" fy="-455.87" r="40.05" gradientTransform="translate(-4669.41 -590.93) rotate(-165.57) scale(1 -1)" gradientUnits="userSpaceOnUse">
      <stop offset="0" stop-color="#04ddd9" stop-opacity=".4"/>
      <stop offset=".34" stop-color="#066ebc" stop-opacity=".2"/>
      <stop offset=".65" stop-color="#066ebc" stop-opacity=".1"/>
      <stop offset="1" stop-color="#066ebc" stop-opacity="0"/>
    </radialGradient>
    <radialGradient id="radial-gradient-2" cx="-4859.11" cy="-442.54" fx="-4859.11" fy="-442.54" r="84.11" gradientTransform="translate(-4669.41 -590.93) rotate(-165.57) scale(1 -1)" gradientUnits="userSpaceOnUse">
      <stop offset="0" stop-color="#2822cd" stop-opacity=".7"/>
      <stop offset=".34" stop-color="#066ebc" stop-opacity=".2"/>
      <stop offset=".65" stop-color="#066ebc" stop-opacity=".1"/>
      <stop offset="1" stop-color="#066ebc" stop-opacity="0"/>
    </radialGradient>
    <linearGradient id="linear-gradient-5" x1="-4820.54" y1="-447.06" x2="-4748.01" y2="-438.4" gradientTransform="translate(-4669.41 -590.93) rotate(-165.57) scale(1 -1)" gradientUnits="userSpaceOnUse">
      <stop offset="0" stop-color="#0731d6" stop-opacity=".7"/>
      <stop offset=".34" stop-color="#056ad8" stop-opacity=".1"/>
      <stop offset=".52" stop-color="#5867d6" stop-opacity=".1"/>
      <stop offset=".65" stop-color="#3a7cd0" stop-opacity=".1"/>
      <stop offset="1" stop-color="#0731d6" stop-opacity=".6"/>
    </linearGradient>
    <radialGradient id="radial-gradient-3" cx="-4751.16" cy="-455.36" fx="-4751.16" fy="-455.36" r="50.14" xlink:href="#radial-gradient"/>
    <radialGradient id="radial-gradient-4" cx="-4772.68" cy="-452.84" fx="-4772.68" fy="-452.84" r="25.59" gradientTransform="translate(-4669.41 -590.93) rotate(-165.57) scale(1 -1)" gradientUnits="userSpaceOnUse">
      <stop offset="0" stop-color="#596ee2" stop-opacity=".4"/>
      <stop offset=".34" stop-color="#596ee2" stop-opacity=".2"/>
      <stop offset=".65" stop-color="#066ebc" stop-opacity=".1"/>
      <stop offset="1" stop-color="#066ebc" stop-opacity="0"/>
    </radialGradient>
    <linearGradient id="linear-gradient-6" x1="-4731.02" y1="-451.83" x2="-4710.26" y2="-513.02" gradientTransform="translate(-4669.41 -590.93) rotate(-165.57) scale(1 -1)" gradientUnits="userSpaceOnUse">
      <stop offset="0" stop-color="#3b4ab0"/>
      <stop offset=".34" stop-color="#056ad8" stop-opacity=".1"/>
      <stop offset=".52" stop-color="#5867d6" stop-opacity=".1"/>
      <stop offset=".65" stop-color="#3a7cd0" stop-opacity=".1"/>
      <stop offset="1" stop-color="#3b4aaf" stop-opacity=".5"/>
    </linearGradient>
    <radialGradient id="radial-gradient-5" cx="-4826.1" cy="-593.49" fx="-4826.1" fy="-593.49" r="64.29" gradientTransform="translate(-4669.41 -590.93) rotate(-165.57) scale(1 -1)" gradientUnits="userSpaceOnUse">
      <stop offset="0" stop-color="#04ddd9" stop-opacity=".2"/>
      <stop offset=".34" stop-color="#066ebc" stop-opacity=".2"/>
      <stop offset=".65" stop-color="#066ebc" stop-opacity=".1"/>
      <stop offset="1" stop-color="#066ebc" stop-opacity="0"/>
    </radialGradient>
    <radialGradient id="radial-gradient-6" cx="-4718.57" cy="-525.56" fx="-4718.57" fy="-525.56" r="52.19" gradientTransform="translate(-4669.41 -590.93) rotate(-165.57) scale(1 -1)" gradientUnits="userSpaceOnUse">
      <stop offset="0" stop-color="#5462d4" stop-opacity=".8"/>
      <stop offset=".34" stop-color="#066ebc" stop-opacity=".2"/>
      <stop offset=".65" stop-color="#066ebc" stop-opacity=".1"/>
      <stop offset="1" stop-color="#066ebc" stop-opacity="0"/>
    </radialGradient>
    <linearGradient id="linear-gradient-7" x1="-4510.86" y1="-350.16" x2="-4439.52" y2="-445.8" gradientTransform="translate(-4248.42 -1143.02) rotate(-159.36) scale(1 -1)" gradientUnits="userSpaceOnUse">
      <stop offset="0" stop-color="#f2f2f2" stop-opacity="0"/>
      <stop offset=".34" stop-color="#f2f2f2" stop-opacity=".1"/>
      <stop offset=".65" stop-color="#0674da" stop-opacity=".2"/>
      <stop offset="1" stop-color="#3b7fd1"/>
    </linearGradient>
    <radialGradient id="radial-gradient-7" cx="-4809.28" cy="-456.52" fx="-4809.28" fy="-456.52" r="69.6" xlink:href="#radial-gradient"/>
    <radialGradient id="radial-gradient-8" cx="-4840.65" cy="-404.78" fx="-4840.65" fy="-404.78" r="119.77" gradientTransform="translate(-4669.41 -590.93) rotate(-165.57) scale(1 -1)" gradientUnits="userSpaceOnUse">
      <stop offset="0" stop-color="#2b3195"/>
      <stop offset=".34" stop-color="#066ebc" stop-opacity=".2"/>
      <stop offset=".65" stop-color="#066ebc" stop-opacity=".1"/>
      <stop offset="1" stop-color="#066ebc" stop-opacity="0"/>
    </radialGradient>
    <radialGradient id="radial-gradient-9" cx="-4739.36" cy="-470.08" fx="-4739.36" fy="-470.08" r="88.62" gradientTransform="translate(-4669.41 -590.93) rotate(-165.57) scale(1 -1)" gradientUnits="userSpaceOnUse">
      <stop offset="0" stop-color="#596ee2"/>
      <stop offset=".34" stop-color="#596ee2" stop-opacity=".2"/>
      <stop offset=".65" stop-color="#066ebc" stop-opacity=".1"/>
      <stop offset="1" stop-color="#066ebc" stop-opacity="0"/>
    </radialGradient>
    <linearGradient id="linear-gradient-8" x1="-4864.63" y1="-513.3" x2="-4825.69" y2="-544.22" xlink:href="#linear-gradient-4"/>
    <radialGradient id="radial-gradient-10" cx="-4851.99" cy="-518.44" fx="-4851.99" fy="-518.44" r="89.93" xlink:href="#radial-gradient"/>
    <radialGradient id="radial-gradient-11" cx="-4887.84" cy="-476.43" fx="-4887.84" fy="-476.43" r="39.25" gradientTransform="translate(-4669.41 -590.93) rotate(-165.57) scale(1 -1)" gradientUnits="userSpaceOnUse">
      <stop offset="0" stop-color="#2a4eae"/>
      <stop offset=".34" stop-color="#066ebc" stop-opacity=".2"/>
      <stop offset=".65" stop-color="#066ebc" stop-opacity=".1"/>
      <stop offset="1" stop-color="#066ebc" stop-opacity="0"/>
    </radialGradient>
    <linearGradient id="linear-gradient-9" x1="659.48" y1="189.45" x2="910.61" y2="35.98" xlink:href="#linear-gradient"/>
  </defs>
  <g>
    <g>
      <path class="cls-20" d="M285.39,134.69v47.92h-32.93V36.41h51.59c18.42,0,32.23,3.98,41.44,11.93,9.21,7.95,13.81,19.92,13.81,35.89,0,15.09-5.29,27.27-15.85,36.55-10.57,9.28-24.69,13.92-42.36,13.92h-15.7ZM285.39,61.69v48.02h12.95c8.77,0,15.34-2.02,19.73-6.07,4.38-4.04,6.58-10.11,6.58-18.2s-2.19-13.9-6.58-17.84c-4.38-3.94-10.96-5.91-19.73-5.91h-12.95Z"/>
      <path class="cls-20" d="M493.32,36.41l-47.61,94.2v52h-32.93v-51.38l-46.39-94.81h37.62l23.55,54.54c.2.54.59,1.8,1.17,3.77.58,1.97,1.31,4.69,2.19,8.16h.41c.41-2.45.88-4.62,1.43-6.52.54-1.9,1.12-3.57,1.73-5l23.96-54.95h34.87Z"/>
      <path class="cls-20" d="M676.53,182.6h-32.52v-87.47c0-4.69.1-9.65.31-14.88.2-5.23.51-10.71.92-16.41h-.81c-.89,4.49-1.68,8.34-2.4,11.57-.71,3.23-1.44,5.83-2.19,7.8l-34.26,99.4h-26.91l-34.87-98.38c-.41-1.36-1.02-3.74-1.83-7.14-.82-3.4-1.73-7.82-2.75-13.25h-.92c.47,7.21.82,13.97,1.02,20.29.2,6.32.31,12.2.31,17.64v80.85h-29.67V36.41h48.22l29.87,86.66c1.22,3.2,2.23,6.39,3.01,9.58.78,3.2,1.51,6.42,2.19,9.68h.61c.95-3.67,1.9-7.14,2.85-10.4.95-3.26,1.94-6.29,2.96-9.07l29.87-86.45h47v146.2Z"/>
      <path class="cls-2" d="M887.01,182.6h-32.93V36.41h32.93v146.2Z"/>
      <path class="cls-20" d="M910.81,170.72l13.66-24.85c7.34,4.22,13.71,7.08,19.11,8.56,5.4,1.48,11.1,2.23,17.08,2.23,7.88,0,13.69-1.47,17.43-4.4,3.74-2.94,5.61-6.95,5.61-12.03s-1.5-8.63-4.49-11.24c-2.99-2.61-8.5-4.8-16.52-6.58-16.31-3.63-28.17-8.78-35.58-15.44-7.41-6.66-11.11-15.97-11.11-27.91s4.79-22.22,14.37-30.64c9.58-8.41,23.01-12.62,40.27-12.62,7.2,0,14.27.79,21.21,2.38,6.93,1.58,13.52,3.89,19.78,6.93l-12.34,25.24c-5.64-3.1-10.94-5.31-15.9-6.63-4.96-1.32-9.58-1.98-13.87-1.98-6.59,0-11.72,1.26-15.39,3.76-3.67,2.51-5.51,6.11-5.51,10.79,0,4.29,1.68,7.59,5.05,9.9,3.36,2.31,9.4,4.42,18.1,6.33,15.84,3.5,27.29,8.71,34.36,15.64,7.07,6.93,10.6,16.7,10.6,29.3,0,13.46-4.88,24.35-14.63,32.67-9.75,8.31-23.91,12.47-42.46,12.47-8.09,0-16.55-1.04-25.39-3.12-8.84-2.08-16.65-5-23.45-8.76Z"/>
    </g>
    <g>
      <g>
        <path class="cls-10" d="M131.21,64.28c.09,13.79,1.71,30.4,2.12,34.39-1.55-2.29-3.37-4.45-5.48-6.43-9.07-8.6-22.4-11.89-33.97-7.21-1.82.74-3.56,1.7-5.15,2.84l-.04.03c-2.15,1.49-5.11.79-6.37-1.49l-25.96-47.07c-1.21-2.2-.32-4.98,1.95-6.05,4.77-2.24,9.64-4.42,14.73-5.79,9.18-2.45,18.62-3.62,28.11-3.2,13.63.61,25.63,3.99,36.59,9.79,0,0-6.62,13.68-6.52,30.2Z"/>
        <path class="cls-18" d="M131.21,64.28c.09,13.79,1.71,30.4,2.12,34.39-1.55-2.29-3.37-4.45-5.48-6.43-9.07-8.6-22.4-11.89-33.97-7.21-1.82.74-3.56,1.7-5.15,2.84l-.04.03c-2.15,1.49-5.11.79-6.37-1.49l-25.96-47.07c-1.21-2.2-.32-4.98,1.95-6.05,4.77-2.24,9.64-4.42,14.73-5.79,9.18-2.45,18.63-3.8,28.11-3.2,12.65.69,24.11,3.26,35.07,9.06,0,0-5.1,14.41-5,30.93Z"/>
        <path class="cls-14" d="M131.21,64.28c.09,13.79,1.71,30.4,2.12,34.39-1.55-2.29-3.37-4.45-5.48-6.43-9.07-8.6-22.4-11.89-33.97-7.21-1.82.74-3.56,1.7-5.15,2.84l-.04.03c-2.15,1.49-5.11.79-6.37-1.49l-25.96-47.07c-1.21-2.2-.32-4.98,1.95-6.05,4.77-2.24,9.47-4.35,14.56-5.72,9.11-2.46,18.47-3.88,27.95-3.28,12.65.69,24.15,3.29,35.45,8.95,0,0-5.16,14.53-5.05,31.05Z"/>
      </g>
      <path class="cls-6" d="M95.88,168.85c12.39-1.84,24.09-7.79,32.72-17.96,2.83-3.3,5.16-6.95,6.95-10.81l39.23,12.86c-5.31,10.16-12.59,19.32-21.66,26.7-3.95,3.32-8.2,6.26-12.67,8.8,0,0-7.03-8.88-20.52-13.76-10.01-3.62-19.1-5.19-24.04-5.83Z"/>
      <path class="cls-27" d="M95.88,168.85c12.39-1.84,24.09-7.79,32.72-17.96,2.83-3.3,5.16-6.95,6.95-10.81l39.23,12.86c-5.31,10.16-12.59,19.32-21.66,26.7-3.95,3.32-8.2,6.26-12.67,8.8,0,0-7.03-8.88-20.52-13.76-10.01-3.62-19.1-5.19-24.04-5.83Z"/>
      <path class="cls-17" d="M95.88,168.85c12.39-1.84,24.09-7.79,32.72-17.96,2.83-3.3,5.16-6.95,6.95-10.81l39.23,12.86c-5.31,10.16-12.59,19.32-21.66,26.7-3.95,3.32-8.2,6.26-12.67,8.8,0,0-7.03-8.88-20.52-13.76-10.01-3.62-19.1-5.19-24.04-5.83Z"/>
      <path class="cls-12" d="M95.88,168.85c12.39-1.84,24.09-7.79,32.72-17.96,2.83-3.3,5.16-6.95,6.95-10.81l39.23,12.86c-5.31,10.16-12.59,19.32-21.66,26.7-3.95,3.32-8.2,6.26-12.67,8.8,0,0-7.03-8.88-20.52-13.76-10.01-3.62-19.1-5.19-24.04-5.83Z"/>
      <path class="cls-3" d="M37.98,142.08c4.06,5.91,9.64,11.28,15.41,15.47,11.78,8.75,26.25,12.62,40.14,11.44l11.68,30.44c-8.26.7-16.62.23-24.76-1.49-12.31-2.51-23.36-7.29-32.86-13.71,0,0,.12-10.88-2.11-21.52-1.39-6.65-5.59-16-7.5-20.62Z"/>
      <path class="cls-8" d="M37.98,142.08c4.06,5.91,9.64,11.28,15.41,15.47,11.78,8.75,26.25,12.62,40.14,11.44l11.68,30.44c-8.26.7-16.62.23-24.76-1.49-12.31-2.51-23.36-7.29-32.86-13.71,0,0,.12-10.88-2.11-21.52-1.39-6.65-5.59-16-7.5-20.62Z"/>
      <path class="cls-25" d="M37.98,142.08c4.06,5.91,9.64,11.28,15.41,15.47,11.78,8.75,26.25,12.62,40.14,11.44l11.68,30.44c-8.26.7-16.62.23-24.76-1.49-12.31-2.51-23.36-7.29-32.86-13.71,0,0,.12-10.88-2.11-21.52-1.39-6.65-5.59-16-7.5-20.62Z"/>
      <path class="cls-7" d="M37.98,142.08c4.06,5.91,9.64,11.28,15.41,15.47,11.78,8.75,26.25,12.62,40.14,11.44l11.68,30.44c-8.26.7-16.62.23-24.76-1.49-12.31-2.51-23.36-7.29-32.86-13.71,0,0,.12-10.88-2.11-21.52-1.39-6.65-5.59-16-7.5-20.62Z"/>
      <path class="cls-1" d="M31.57,79.16c-1.8,6.42-4.73,18.97-4.67,25.7-.06,12.51,3.64,24.96,10.22,35.51l-15.75,16.4c-7.67-13.05-11.8-27.92-11.67-43.04l-.13-.02s6.36-4.77,12.47-14.95c2.8-4.67,7.58-15.78,9.53-19.6Z"/>
      <path class="cls-4" d="M31.57,79.16c-1.8,6.42-4.73,18.97-4.67,25.7-.06,12.51,3.64,24.96,10.22,35.51l-15.75,16.4c-7.67-13.05-11.8-27.92-11.67-43.04l-.13-.02s6.36-4.77,12.47-14.95c2.8-4.67,7.58-15.78,9.53-19.6Z"/>
      <g>
        <path class="cls-9" d="M133.17,98.46l39.01-48.52c1.26-1.59,1.02-3.89-.53-5.19l-23.89-20.05c-1.62-1.36-4.06-1.11-5.36.57l-6.09,7.83s-6.27,13.1-6.16,30.11c.1,16.26,3.01,35.26,3.01,35.26Z"/>
        <path class="cls-15" d="M133.17,98.46l39.01-48.52c1.26-1.59,1.02-3.89-.53-5.19l-23.89-20.05c-1.62-1.36-4.06-1.11-5.36.57l-6.09,7.83s-6.27,13.1-6.16,30.11c.1,16.26,3.01,35.26,3.01,35.26Z"/>
      </g>
      <path class="cls-1" d="M39.07,192.3l8.84-7.75s.12-10.88-2.11-21.52c-1.94-9.22-8.71-22.75-8.71-22.75l-15.56,16.2-8.46,8.41c-1.66,1.65-1.69,4.32-.08,6.01l20.13,21.13c1.59,1.67,4.21,1.78,5.94.27Z"/>
      <path class="cls-19" d="M9.66,113.7l-6.35-.76c-2.08-.25-3.55-2.15-3.28-4.22l4.18-31.72c.29-2.19,2.4-3.67,4.56-3.17l10.69,2.43,12.06,3.02s-4.17,10.77-9.39,19.48c-6.11,10.18-12.47,14.95-12.47,14.95Z"/>
      <path class="cls-23" d="M9.66,113.7l-6.35-.76c-2.08-.25-3.55-2.15-3.28-4.22l4.18-31.72c.29-2.19,2.4-3.67,4.56-3.17l10.69,2.43,12.06,3.02s-4.17,10.77-9.39,19.48c-6.11,10.18-12.47,14.95-12.47,14.95Z"/>
      <path class="cls-11" d="M94.38,119.42c1.01-.49,1.59-1.57,1.44-2.68l-14.92-107.74c-.73-6.15-6.72-10.23-12.71-8.65l-10.67,2.81c-5.98,1.58-9.19,8.08-6.8,13.78,10.58,25.24,34.87,87.6,40.12,101.1.55,1.4,2.17,2.04,3.53,1.39h0Z"/>
      <g>
        <path class="cls-3" d="M93.25,169s12.08-1.39,27.05,4.02c13.49,4.88,20.52,13.76,20.52,13.76l5.15,12.34c.86,2.07-.11,4.44-2.18,5.31l-28.63,12c-2.18.91-4.67-.22-5.42-2.45l-5.35-15.94-11.14-29.04Z"/>
        <path class="cls-13" d="M93.25,169s12.08-1.39,27.05,4.02c13.49,4.88,20.52,13.76,20.52,13.76l5.15,12.34c.86,2.07-.11,4.44-2.18,5.31l-28.63,12c-2.18.91-4.67-.22-5.42-2.45l-5.35-15.94-11.14-29.04Z"/>
        <path class="cls-5" d="M93.25,169s12.08-1.39,27.05,4.02c13.49,4.88,20.52,13.76,20.52,13.76l5.15,12.34c.86,2.07-.11,4.44-2.18,5.31l-28.63,12c-2.18.91-4.67-.22-5.42-2.45l-5.35-15.94-11.14-29.04Z"/>
      </g>
      <path class="cls-24" d="M39.07,192.3l8.84-7.75s.12-10.88-2.11-21.52c-1.94-9.22-8.71-22.75-8.71-22.75l-15.56,16.2-8.46,8.41c-1.66,1.65-1.69,4.32-.08,6.01l20.13,21.13c1.59,1.67,4.21,1.78,5.94.27Z"/>
      <g>
        <path class="cls-9" d="M161.42,124.62c-10.37,5.94-22.71,13.5-25.89,15.45,6.04-13.52,5.55-29.44-2.49-41.77l32.61-41.28c4.46,5.8,8.9,12.33,11.83,19.16,5.65,12.69,7.96,26.48,7.22,40.09l-4.3.65s-6.07.3-18.97,7.69Z"/>
        <path class="cls-21" d="M161.42,124.62c-10.37,5.94-22.71,13.5-25.89,15.45,6.04-13.52,5.55-29.44-2.49-41.77l32.61-41.28c4.46,5.8,8.9,12.33,11.83,19.16,5.65,12.69,7.96,26.48,7.22,40.09l-4.3.65s-6.07.3-18.97,7.69Z"/>
      </g>
      <path class="cls-6" d="M185.27,115.51l13.26,4.16c1.43.43,2.22,1.99,1.76,3.48l-9.83,31.71c-.46,1.47-1.96,2.3-3.37,1.86l-12.84-4-38.73-12.64s12.91-9.62,24.91-16.5c12.9-7.4,24.83-8.07,24.83-8.07Z"/>
      <path class="cls-22" d="M185.27,115.51l13.26,4.16c1.43.43,2.22,1.99,1.76,3.48l-9.83,31.71c-.46,1.47-1.96,2.3-3.37,1.86l-12.84-4-38.73-12.64s12.91-9.62,24.91-16.5c12.9-7.4,24.83-8.07,24.83-8.07Z"/>
      <path class="cls-26" d="M185.27,115.51l13.26,4.16c1.43.43,2.22,1.99,1.76,3.48l-9.83,31.71c-.46,1.47-1.96,2.3-3.37,1.86l-12.84-4-38.73-12.64s12.91-9.62,24.91-16.5c12.9-7.4,24.83-8.07,24.83-8.07Z"/>
    </g>
  </g>
  <polygon class="cls-16" points="691.57 182.6 727.25 182.6 763.85 64.95 799.94 182.6 835.83 182.6 783.83 36.41 744.78 36.41 691.57 182.6"/>
</svg>
